<?xml version="1.0" standalone="no"?>
<!DOCTYPE svg PUBLIC "-//W3C//DTD SVG 1.1//EN" "http://www.w3.org/Graphics/SVG/1.1/DTD/svg11.dtd">
<svg t="1577995337764" 
    class="icon" 
    viewBox="0 0 1024 1024" 
    version="1.1" 
    xmlns="http://www.w3.org/2000/svg" 
    p-id="18165" 
    width="200" 
    height="200">
    <path d="M950.8864 0c21.2992 0 38.8096 6.8608 52.5312 20.5824C1017.1392 
    34.304 1024 51.8144 1024 73.1136l0 548.5568c0 21.4016-6.8608 38.912-20.5824 
    52.5312C989.696 688.0256 972.1856 694.8864 950.8864 694.8864L548.5568 694.8864l0 
    38.912L788.5824 768c13.7216 3.072 19.0464 9.9328 15.9744 20.5824-3.072 
    10.6496-9.1136 15.9744-18.3296 15.9744L783.9744 804.5568 530.3296 768 276.5824 
    804.5568C265.9328 807.6288 259.072 802.304 256 788.5824 252.928 777.9328 258.2528 
    771.072 271.9744 768L512 733.696l0-38.912L73.1136 694.784c-21.2992 0-38.8096-6.8608-52.5312-20.5824C6.8608 
    660.5824 0 643.072 0 621.6704L0 73.1136c0-21.2992 6.8608-38.8096 20.5824-52.5312C34.304 6.8608 51.8144 
    0 73.1136 0L950.8864 0zM987.4432 73.1136c0-24.3712-12.1856-36.5568-36.5568-36.5568L73.1136 36.5568c-24.3712 
    0-36.5568 12.288-36.5568 36.5568l0 548.5568c0 24.3712 12.1856 36.5568 36.5568 36.5568l877.6704 0c24.3712 0 
    36.5568-12.1856 36.5568-36.5568L987.3408 73.1136z" p-id="18166" fill="#e6e6e6">
    </path>
    
</svg>