<?xml version="1.0" standalone="no"?>
<!DOCTYPE svg PUBLIC "-//W3C//DTD SVG 1.1//EN" "http://www.w3.org/Graphics/SVG/1.1/DTD/svg11.dtd">
<svg 
    class="icon" 
    width="200px" 
    height="200.00px" 
    viewBox="0 0 1024 1024" 
    version="1.1" 
    xmlns="http://www.w3.org/2000/svg">
    <path fill="#e6e6e6" 
            d="M741.4 499.3a226.47 226.47 0 1 0-66.33 160.14A225 225 0 0 0 741.4 499.3zM514.94 
            699.92a199.31 199.31 0 0 1-141.86-58.76c-78.22-78.22-78.22-205.5 0-283.72a200.62 
            200.62 0 0 1 283.72 0c78.22 78.22 78.22 205.5 0 283.72a199.3 199.3 0 0 1-141.86 58.76z"  />
    <path fill="#e6e6e6" 
            d="M867.5 782L757.18 671.68a297.12 297.12 0 1 0-69.86 69.86l110.32 110.33a38.82 38.82 0 
            0 0 54.83 0l15-15a38.77 38.77 0 0 0 0-54.83zM323 691.21a271.41 271.41 0 1 1 383.87 0l-0.08 
            0.08a271.41 271.41 0 0 1-383.79 0z m526.2 127.34l-15 15a12.94 12.94 0 0 1-18.28 0l-107.45-107.4 
            33.31-33.31 107.44 107.44a12.92 12.92 0 0 1 0 18.28z"  />
    <path fill="#e6e6e6" d="M552.94 446.71a12.92 12.92 0 0 0 25.85 0 63.21 63.21 0 0 0-50.18-61.76v-10.79a12.92 
            12.92 0 0 0-25.85 0v10.78a63.1 63.1 0 0 0 0 123.53V582a37.31 37.31 0 0 1-24.33-34.94 12.92 12.92 0 
            1 0-25.85 0 63.21 63.21 0 0 0 50.18 61.76v10.78a12.92 12.92 0 0 0 25.85 0v-10.77a63.1 63.1 0 0 0 
            0-123.53v-73.53a37.31 37.31 0 0 1 24.33 34.94z m-74.5 0a37.31 37.31 0 0 1 24.33-34.94v69.87a37.31 
            37.31 0 0 1-24.33-34.93z m74.5 100.35A37.31 37.31 0 0 1 528.62 582v-69.87a37.31 37.31 0 0 1 24.32 
            34.93z"  />
</svg>